<mxfile host="65bd71144e" pages="2">
    <diagram id="wI0eQ5ArVQbEVyNcxT0r" name="ページ1">
        <mxGraphModel dx="757" dy="586" grid="1" gridSize="10" guides="1" tooltips="1" connect="1" arrows="1" fold="1" page="1" pageScale="1" pageWidth="827" pageHeight="1169" math="1" shadow="0">
            <root>
                <mxCell id="0"/>
                <mxCell id="1" parent="0"/>
                <mxCell id="_V6hd7vmPrXXni_OvMqR-2" value="" style="group" parent="1" vertex="1" connectable="0">
                    <mxGeometry x="390" y="540" width="200" height="70" as="geometry"/>
                </mxCell>
                <mxCell id="9Oe-uevTjoEYf9GDIEHc-1" value="" style="curved=1;endArrow=none;html=1;rounded=0;strokeWidth=2;strokeColor=#0066CC;" parent="_V6hd7vmPrXXni_OvMqR-2" edge="1">
                    <mxGeometry width="50" height="50" relative="1" as="geometry">
                        <mxPoint y="70" as="sourcePoint"/>
                        <mxPoint x="160" y="70" as="targetPoint"/>
                        <Array as="points">
                            <mxPoint x="16" y="63.33333333333333"/>
                            <mxPoint x="32" y="46.66666666666667"/>
                            <mxPoint x="48" y="23.333333333333336"/>
                            <mxPoint x="64" y="6.666666666666666"/>
                            <mxPoint x="80"/>
                            <mxPoint x="96" y="6.666666666666666"/>
                            <mxPoint x="112" y="23.333333333333336"/>
                            <mxPoint x="128" y="46.66666666666667"/>
                            <mxPoint x="144" y="63.33333333333333"/>
                        </Array>
                    </mxGeometry>
                </mxCell>
                <mxCell id="_V6hd7vmPrXXni_OvMqR-1" value="" style="endArrow=none;html=1;strokeWidth=2;" parent="_V6hd7vmPrXXni_OvMqR-2" edge="1">
                    <mxGeometry width="50" height="50" relative="1" as="geometry">
                        <mxPoint y="70" as="sourcePoint"/>
                        <mxPoint x="160" y="70" as="targetPoint"/>
                    </mxGeometry>
                </mxCell>
                <mxCell id="dTfINH2JeJiEJF7WRclb-2" value="$$\mu$$" style="text;strokeColor=none;align=center;fillColor=none;html=1;verticalAlign=middle;whiteSpace=wrap;rounded=0;" parent="_V6hd7vmPrXXni_OvMqR-2" vertex="1">
                    <mxGeometry x="50" y="30" width="60" height="30" as="geometry"/>
                </mxCell>
                <mxCell id="VSOOdFKqQpEASRD3PjGL-153" value="~" style="text;strokeColor=none;align=center;fillColor=none;html=1;verticalAlign=middle;whiteSpace=wrap;rounded=0;" parent="_V6hd7vmPrXXni_OvMqR-2" vertex="1">
                    <mxGeometry x="140" y="-20" width="60" height="30" as="geometry"/>
                </mxCell>
                <mxCell id="_V6hd7vmPrXXni_OvMqR-3" value="&lt;font face=&quot;Times New Roman&quot;&gt;&lt;span style=&quot;font-size: 18px;&quot;&gt;$$Y_{ij}$$&lt;/span&gt;&lt;/font&gt;" style="text;strokeColor=none;align=center;fillColor=none;html=1;verticalAlign=middle;whiteSpace=wrap;rounded=0;" parent="1" vertex="1">
                    <mxGeometry x="440" y="660" width="60" height="30" as="geometry"/>
                </mxCell>
                <mxCell id="_V6hd7vmPrXXni_OvMqR-4" value="" style="endArrow=classic;html=1;entryX=0.5;entryY=0;entryDx=0;entryDy=0;" parent="1" target="_V6hd7vmPrXXni_OvMqR-3" edge="1">
                    <mxGeometry width="50" height="50" relative="1" as="geometry">
                        <mxPoint x="470" y="610" as="sourcePoint"/>
                        <mxPoint x="500" y="570" as="targetPoint"/>
                    </mxGeometry>
                </mxCell>
                <mxCell id="_V6hd7vmPrXXni_OvMqR-5" value="~" style="text;strokeColor=none;align=center;fillColor=none;html=1;verticalAlign=middle;whiteSpace=wrap;rounded=0;" parent="1" vertex="1">
                    <mxGeometry x="430" y="620" width="60" height="30" as="geometry"/>
                </mxCell>
                <mxCell id="6" value="&lt;font face=&quot;Times New Roman&quot;&gt;&lt;span style=&quot;font-size: 18px;&quot;&gt;$$\sigma$$&lt;/span&gt;&lt;/font&gt;" style="text;strokeColor=none;align=center;fillColor=none;html=1;verticalAlign=middle;whiteSpace=wrap;rounded=0;" parent="1" vertex="1">
                    <mxGeometry x="490" y="530" width="60" height="30" as="geometry"/>
                </mxCell>
                <mxCell id="13" value="&lt;font face=&quot;Times New Roman&quot;&gt;&lt;span style=&quot;font-size: 18px;&quot;&gt;$$\beta_{0j}+\beta_{1j}X_{ij}$$&lt;/span&gt;&lt;/font&gt;" style="text;strokeColor=none;align=center;fillColor=none;html=1;verticalAlign=middle;whiteSpace=wrap;rounded=0;" parent="1" vertex="1">
                    <mxGeometry x="450" y="480" width="60" height="30" as="geometry"/>
                </mxCell>
                <mxCell id="16" value="" style="endArrow=classic;html=1;entryX=0.424;entryY=0.052;entryDx=0;entryDy=0;entryPerimeter=0;" parent="1" target="dTfINH2JeJiEJF7WRclb-2" edge="1">
                    <mxGeometry width="50" height="50" relative="1" as="geometry">
                        <mxPoint x="480" y="510" as="sourcePoint"/>
                        <mxPoint x="510" y="480" as="targetPoint"/>
                    </mxGeometry>
                </mxCell>
                <mxCell id="VSOOdFKqQpEASRD3PjGL-97" value="" style="group" parent="1" vertex="1" connectable="0">
                    <mxGeometry x="331.16" y="250" width="348.84" height="200" as="geometry"/>
                </mxCell>
                <mxCell id="19" value="$$\gamma_{10}+\gamma_{11}W_j$$" style="text;strokeColor=none;align=center;fillColor=none;html=1;verticalAlign=middle;whiteSpace=wrap;rounded=0;" parent="VSOOdFKqQpEASRD3PjGL-97" vertex="1">
                    <mxGeometry x="145" width="40" height="28" as="geometry"/>
                </mxCell>
                <mxCell id="VSOOdFKqQpEASRD3PjGL-32" value="" style="group" parent="VSOOdFKqQpEASRD3PjGL-97" vertex="1" connectable="0">
                    <mxGeometry x="85" y="83" width="30.78" height="110" as="geometry"/>
                </mxCell>
                <mxCell id="VSOOdFKqQpEASRD3PjGL-27" value="" style="endArrow=none;html=1;rounded=0;strokeWidth=2;endFill=0;" parent="VSOOdFKqQpEASRD3PjGL-32" edge="1">
                    <mxGeometry width="50" height="50" relative="1" as="geometry">
                        <mxPoint x="29.995383905216194" y="27.5" as="sourcePoint"/>
                        <mxPoint x="29.995383905216194" y="96.25" as="targetPoint"/>
                    </mxGeometry>
                </mxCell>
                <mxCell id="VSOOdFKqQpEASRD3PjGL-29" value="" style="curved=1;endArrow=none;html=1;rounded=0;strokeWidth=2;strokeColor=#0066CC;" parent="VSOOdFKqQpEASRD3PjGL-32" edge="1">
                    <mxGeometry width="50" height="50" relative="1" as="geometry">
                        <mxPoint x="29.995383905216194" y="110" as="sourcePoint"/>
                        <mxPoint x="29.995383905216194" as="targetPoint"/>
                        <Array as="points">
                            <mxPoint x="26.995845514694576" y="99"/>
                            <mxPoint x="20.13975776493087" y="88"/>
                            <mxPoint x="9.855626140285322" y="77"/>
                            <mxPoint x="2.9995383905216193" y="66"/>
                            <mxPoint y="55"/>
                            <mxPoint x="2.9995383905216193" y="44"/>
                            <mxPoint x="9.855626140285322" y="33"/>
                            <mxPoint x="20.13975776493087" y="22"/>
                            <mxPoint x="26.995845514694576" y="11"/>
                        </Array>
                    </mxGeometry>
                </mxCell>
                <mxCell id="VSOOdFKqQpEASRD3PjGL-30" value="" style="endArrow=none;html=1;strokeWidth=2;" parent="VSOOdFKqQpEASRD3PjGL-32" edge="1">
                    <mxGeometry width="50" height="50" relative="1" as="geometry">
                        <mxPoint x="29.995383905216194" y="110" as="sourcePoint"/>
                        <mxPoint x="29.995383905216194" as="targetPoint"/>
                    </mxGeometry>
                </mxCell>
                <mxCell id="VSOOdFKqQpEASRD3PjGL-66" value="$$\tau_{00}$$" style="text;strokeColor=none;align=center;fillColor=none;html=1;verticalAlign=middle;whiteSpace=wrap;rounded=0;" parent="VSOOdFKqQpEASRD3PjGL-32" vertex="1">
                    <mxGeometry x="-10.002671180181554" y="9.998571428571438" width="31.574088321280204" height="21.42857142857143" as="geometry"/>
                </mxCell>
                <mxCell id="VSOOdFKqQpEASRD3PjGL-37" value="" style="group;rotation=90;" parent="VSOOdFKqQpEASRD3PjGL-97" vertex="1" connectable="0">
                    <mxGeometry x="155" y="13" width="193.83999999999997" height="180" as="geometry"/>
                </mxCell>
                <mxCell id="VSOOdFKqQpEASRD3PjGL-38" value="" style="endArrow=none;html=1;rounded=0;strokeWidth=2;endFill=0;" parent="VSOOdFKqQpEASRD3PjGL-37" edge="1">
                    <mxGeometry width="50" height="50" relative="1" as="geometry">
                        <mxPoint x="43" y="70" as="sourcePoint"/>
                        <mxPoint x="-26" y="70" as="targetPoint"/>
                    </mxGeometry>
                </mxCell>
                <mxCell id="VSOOdFKqQpEASRD3PjGL-39" value="" style="curved=1;endArrow=none;html=1;rounded=0;strokeWidth=2;strokeColor=#0066CC;" parent="VSOOdFKqQpEASRD3PjGL-37" edge="1">
                    <mxGeometry width="50" height="50" relative="1" as="geometry">
                        <mxPoint x="-40" y="70" as="sourcePoint"/>
                        <mxPoint x="70" y="70" as="targetPoint"/>
                        <Array as="points">
                            <mxPoint x="-29" y="67"/>
                            <mxPoint x="-18" y="60"/>
                            <mxPoint x="-7" y="50"/>
                            <mxPoint x="4" y="43"/>
                            <mxPoint x="15" y="40"/>
                            <mxPoint x="26" y="43"/>
                            <mxPoint x="37" y="50"/>
                            <mxPoint x="48" y="60"/>
                            <mxPoint x="59" y="67"/>
                        </Array>
                    </mxGeometry>
                </mxCell>
                <mxCell id="VSOOdFKqQpEASRD3PjGL-40" value="" style="endArrow=none;html=1;strokeWidth=2;" parent="VSOOdFKqQpEASRD3PjGL-37" edge="1">
                    <mxGeometry width="50" height="50" relative="1" as="geometry">
                        <mxPoint x="-40" y="70" as="sourcePoint"/>
                        <mxPoint x="70" y="70" as="targetPoint"/>
                    </mxGeometry>
                </mxCell>
                <mxCell id="VSOOdFKqQpEASRD3PjGL-53" value="" style="group" parent="VSOOdFKqQpEASRD3PjGL-37" vertex="1" connectable="0">
                    <mxGeometry x="-35.34600282048211" y="70.00399717951782" width="100.69200564096437" height="109.99600282048218" as="geometry"/>
                </mxCell>
                <mxCell id="VSOOdFKqQpEASRD3PjGL-41" value="" style="ellipse;whiteSpace=wrap;html=1;aspect=fixed;fillColor=#808080;strokeColor=default;opacity=60;rotation=45;container=0;" parent="VSOOdFKqQpEASRD3PjGL-53" vertex="1">
                    <mxGeometry x="5.84600282048217" y="23.64600282048218" width="89" height="53.4" as="geometry"/>
                </mxCell>
                <mxCell id="VSOOdFKqQpEASRD3PjGL-47" value="" style="ellipse;whiteSpace=wrap;html=1;aspect=fixed;fillColor=#808080;strokeColor=default;opacity=60;rotation=45;container=0;" parent="VSOOdFKqQpEASRD3PjGL-53" vertex="1">
                    <mxGeometry x="14.186002820482145" y="28.646002820482167" width="72.33" height="43.4" as="geometry"/>
                </mxCell>
                <mxCell id="VSOOdFKqQpEASRD3PjGL-48" value="" style="ellipse;whiteSpace=wrap;html=1;aspect=fixed;fillColor=#808080;strokeColor=default;opacity=60;rotation=45;container=0;" parent="VSOOdFKqQpEASRD3PjGL-53" vertex="1">
                    <mxGeometry x="24.55600282048215" y="34.87600282048216" width="51.58" height="30.95" as="geometry"/>
                </mxCell>
                <mxCell id="VSOOdFKqQpEASRD3PjGL-50" value="" style="ellipse;whiteSpace=wrap;html=1;aspect=fixed;fillColor=#808080;strokeColor=default;opacity=60;rotation=45;container=0;" parent="VSOOdFKqQpEASRD3PjGL-53" vertex="1">
                    <mxGeometry x="34.61600282048215" y="40.906002820482186" width="31.46" height="18.88" as="geometry"/>
                </mxCell>
                <mxCell id="VSOOdFKqQpEASRD3PjGL-79" value="$$\tau_{01} =\rho\tau_{00}\tau_{11}$$" style="text;strokeColor=none;align=center;fillColor=none;html=1;verticalAlign=middle;whiteSpace=wrap;rounded=0;" parent="VSOOdFKqQpEASRD3PjGL-53" vertex="1">
                    <mxGeometry x="63.26600282048213" y="89.99600282048218" width="31.58" height="20" as="geometry"/>
                </mxCell>
                <mxCell id="VSOOdFKqQpEASRD3PjGL-67" value="$$\tau_{11}$$" style="text;strokeColor=none;align=center;fillColor=none;html=1;verticalAlign=middle;whiteSpace=wrap;rounded=0;" parent="VSOOdFKqQpEASRD3PjGL-37" vertex="1">
                    <mxGeometry x="30" y="30" width="30" height="21.43" as="geometry"/>
                </mxCell>
                <mxCell id="VSOOdFKqQpEASRD3PjGL-196" value="" style="endArrow=classic;html=1;rounded=0;curved=1;" parent="VSOOdFKqQpEASRD3PjGL-37" edge="1">
                    <mxGeometry width="50" height="50" relative="1" as="geometry">
                        <mxPoint x="56.879999999999974" as="sourcePoint"/>
                        <mxPoint x="13.83652173913024" y="220" as="targetPoint"/>
                        <Array as="points">
                            <mxPoint x="253.83999999999997" y="120"/>
                        </Array>
                    </mxGeometry>
                </mxCell>
                <mxCell id="VSOOdFKqQpEASRD3PjGL-197" value="~" style="text;strokeColor=none;align=center;fillColor=none;html=1;verticalAlign=middle;whiteSpace=wrap;rounded=0;" parent="VSOOdFKqQpEASRD3PjGL-37" vertex="1">
                    <mxGeometry x="133.83999999999997" y="87" width="60" height="30" as="geometry"/>
                </mxCell>
                <mxCell id="VSOOdFKqQpEASRD3PjGL-86" value="$$\gamma_{00}+\gamma_{01}W_j$$" style="text;strokeColor=none;align=center;fillColor=none;html=1;verticalAlign=middle;whiteSpace=wrap;rounded=0;" parent="VSOOdFKqQpEASRD3PjGL-97" vertex="1">
                    <mxGeometry y="123" width="70" height="30" as="geometry"/>
                </mxCell>
                <mxCell id="VSOOdFKqQpEASRD3PjGL-95" value="" style="endArrow=none;dashed=1;html=1;" parent="VSOOdFKqQpEASRD3PjGL-97" edge="1">
                    <mxGeometry width="50" height="50" relative="1" as="geometry">
                        <mxPoint x="75" y="138" as="sourcePoint"/>
                        <mxPoint x="115" y="138" as="targetPoint"/>
                    </mxGeometry>
                </mxCell>
                <mxCell id="VSOOdFKqQpEASRD3PjGL-96" value="" style="endArrow=none;dashed=1;html=1;entryX=0.5;entryY=1;entryDx=0;entryDy=0;" parent="VSOOdFKqQpEASRD3PjGL-97" edge="1">
                    <mxGeometry width="50" height="50" relative="1" as="geometry">
                        <mxPoint x="171" y="83" as="sourcePoint"/>
                        <mxPoint x="171" y="28" as="targetPoint"/>
                    </mxGeometry>
                </mxCell>
                <mxCell id="VSOOdFKqQpEASRD3PjGL-100" value="~" style="text;strokeColor=none;align=center;fillColor=none;html=1;verticalAlign=middle;whiteSpace=wrap;rounded=0;" parent="VSOOdFKqQpEASRD3PjGL-97" vertex="1">
                    <mxGeometry x="9.999999999999943" y="170" width="60" height="30" as="geometry"/>
                </mxCell>
                <mxCell id="VSOOdFKqQpEASRD3PjGL-133" value="" style="endArrow=classic;html=1;" parent="VSOOdFKqQpEASRD3PjGL-97" edge="1">
                    <mxGeometry width="50" height="50" relative="1" as="geometry">
                        <mxPoint x="88.83999999999997" y="-24" as="sourcePoint"/>
                        <mxPoint x="128.83999999999997" y="6" as="targetPoint"/>
                    </mxGeometry>
                </mxCell>
                <mxCell id="VSOOdFKqQpEASRD3PjGL-155" value="~" style="text;strokeColor=none;align=center;fillColor=none;html=1;verticalAlign=middle;whiteSpace=wrap;rounded=0;" parent="VSOOdFKqQpEASRD3PjGL-97" vertex="1">
                    <mxGeometry x="-11.160000000000025" y="104" width="60" height="30" as="geometry"/>
                </mxCell>
                <mxCell id="VSOOdFKqQpEASRD3PjGL-157" value="~" style="text;strokeColor=none;align=center;fillColor=none;html=1;verticalAlign=middle;whiteSpace=wrap;rounded=0;" parent="VSOOdFKqQpEASRD3PjGL-97" vertex="1">
                    <mxGeometry x="160.34999999999997" y="-30" width="60" height="30" as="geometry"/>
                </mxCell>
                <mxCell id="VSOOdFKqQpEASRD3PjGL-163" value="~" style="text;strokeColor=none;align=center;fillColor=none;html=1;verticalAlign=middle;whiteSpace=wrap;rounded=0;" parent="VSOOdFKqQpEASRD3PjGL-97" vertex="1">
                    <mxGeometry x="33.839999999999975" y="47" width="60" height="30" as="geometry"/>
                </mxCell>
                <mxCell id="VSOOdFKqQpEASRD3PjGL-98" value="" style="endArrow=classic;html=1;exitX=0.369;exitY=0.976;exitDx=0;exitDy=0;exitPerimeter=0;" parent="1" source="VSOOdFKqQpEASRD3PjGL-86" edge="1">
                    <mxGeometry width="50" height="50" relative="1" as="geometry">
                        <mxPoint x="450" y="500" as="sourcePoint"/>
                        <mxPoint x="430" y="490" as="targetPoint"/>
                    </mxGeometry>
                </mxCell>
                <mxCell id="VSOOdFKqQpEASRD3PjGL-114" value="" style="group" parent="1" vertex="1" connectable="0">
                    <mxGeometry x="240" y="340" width="70" height="16" as="geometry"/>
                </mxCell>
                <mxCell id="VSOOdFKqQpEASRD3PjGL-108" value="" style="endArrow=none;html=1;strokeWidth=2;" parent="VSOOdFKqQpEASRD3PjGL-114" edge="1">
                    <mxGeometry width="50" height="50" relative="1" as="geometry">
                        <mxPoint y="15.23809523809524" as="sourcePoint"/>
                        <mxPoint x="70" y="15.23809523809524" as="targetPoint"/>
                    </mxGeometry>
                </mxCell>
                <mxCell id="VSOOdFKqQpEASRD3PjGL-110" value="" style="endArrow=none;html=1;strokeColor=#0066CC;" parent="VSOOdFKqQpEASRD3PjGL-114" edge="1">
                    <mxGeometry width="50" height="50" relative="1" as="geometry">
                        <mxPoint y="0.4876190476190345" as="sourcePoint"/>
                        <mxPoint x="70" y="0.4876190476190345" as="targetPoint"/>
                    </mxGeometry>
                </mxCell>
                <mxCell id="VSOOdFKqQpEASRD3PjGL-111" value="" style="endArrow=none;html=1;strokeColor=#0066CC;" parent="VSOOdFKqQpEASRD3PjGL-114" edge="1">
                    <mxGeometry width="50" height="50" relative="1" as="geometry">
                        <mxPoint y="0.7619047619047592" as="sourcePoint"/>
                        <mxPoint y="16" as="targetPoint"/>
                    </mxGeometry>
                </mxCell>
                <mxCell id="VSOOdFKqQpEASRD3PjGL-112" value="" style="endArrow=none;html=1;strokeColor=#0066CC;" parent="VSOOdFKqQpEASRD3PjGL-114" edge="1">
                    <mxGeometry width="50" height="50" relative="1" as="geometry">
                        <mxPoint x="69.30000000000003" as="sourcePoint"/>
                        <mxPoint x="69.30000000000003" y="15.23809523809524" as="targetPoint"/>
                    </mxGeometry>
                </mxCell>
                <mxCell id="VSOOdFKqQpEASRD3PjGL-115" value="" style="group" parent="1" vertex="1" connectable="0">
                    <mxGeometry x="320" y="340" width="70" height="16" as="geometry"/>
                </mxCell>
                <mxCell id="VSOOdFKqQpEASRD3PjGL-116" value="" style="endArrow=none;html=1;strokeWidth=2;" parent="VSOOdFKqQpEASRD3PjGL-115" edge="1">
                    <mxGeometry width="50" height="50" relative="1" as="geometry">
                        <mxPoint y="15.23809523809524" as="sourcePoint"/>
                        <mxPoint x="70" y="15.23809523809524" as="targetPoint"/>
                    </mxGeometry>
                </mxCell>
                <mxCell id="VSOOdFKqQpEASRD3PjGL-117" value="" style="endArrow=none;html=1;strokeColor=#0066CC;" parent="VSOOdFKqQpEASRD3PjGL-115" edge="1">
                    <mxGeometry width="50" height="50" relative="1" as="geometry">
                        <mxPoint y="0.4876190476190345" as="sourcePoint"/>
                        <mxPoint x="70" y="0.4876190476190345" as="targetPoint"/>
                    </mxGeometry>
                </mxCell>
                <mxCell id="VSOOdFKqQpEASRD3PjGL-118" value="" style="endArrow=none;html=1;strokeColor=#0066CC;" parent="VSOOdFKqQpEASRD3PjGL-115" edge="1">
                    <mxGeometry width="50" height="50" relative="1" as="geometry">
                        <mxPoint y="0.7619047619047592" as="sourcePoint"/>
                        <mxPoint y="16" as="targetPoint"/>
                    </mxGeometry>
                </mxCell>
                <mxCell id="VSOOdFKqQpEASRD3PjGL-119" value="" style="endArrow=none;html=1;strokeColor=#0066CC;" parent="VSOOdFKqQpEASRD3PjGL-115" edge="1">
                    <mxGeometry width="50" height="50" relative="1" as="geometry">
                        <mxPoint x="69.30000000000003" as="sourcePoint"/>
                        <mxPoint x="69.30000000000003" y="15.23809523809524" as="targetPoint"/>
                    </mxGeometry>
                </mxCell>
                <mxCell id="VSOOdFKqQpEASRD3PjGL-120" value="" style="group" parent="1" vertex="1" connectable="0">
                    <mxGeometry x="390" y="210" width="70" height="16" as="geometry"/>
                </mxCell>
                <mxCell id="VSOOdFKqQpEASRD3PjGL-121" value="" style="endArrow=none;html=1;strokeWidth=2;" parent="VSOOdFKqQpEASRD3PjGL-120" edge="1">
                    <mxGeometry width="50" height="50" relative="1" as="geometry">
                        <mxPoint y="15.23809523809524" as="sourcePoint"/>
                        <mxPoint x="70" y="15.23809523809524" as="targetPoint"/>
                    </mxGeometry>
                </mxCell>
                <mxCell id="VSOOdFKqQpEASRD3PjGL-122" value="" style="endArrow=none;html=1;strokeColor=#0066CC;" parent="VSOOdFKqQpEASRD3PjGL-120" edge="1">
                    <mxGeometry width="50" height="50" relative="1" as="geometry">
                        <mxPoint y="0.4876190476190345" as="sourcePoint"/>
                        <mxPoint x="70" y="0.4876190476190345" as="targetPoint"/>
                    </mxGeometry>
                </mxCell>
                <mxCell id="VSOOdFKqQpEASRD3PjGL-123" value="" style="endArrow=none;html=1;strokeColor=#0066CC;" parent="VSOOdFKqQpEASRD3PjGL-120" edge="1">
                    <mxGeometry width="50" height="50" relative="1" as="geometry">
                        <mxPoint y="0.7619047619047592" as="sourcePoint"/>
                        <mxPoint y="16" as="targetPoint"/>
                    </mxGeometry>
                </mxCell>
                <mxCell id="VSOOdFKqQpEASRD3PjGL-124" value="" style="endArrow=none;html=1;strokeColor=#0066CC;" parent="VSOOdFKqQpEASRD3PjGL-120" edge="1">
                    <mxGeometry width="50" height="50" relative="1" as="geometry">
                        <mxPoint x="69.30000000000003" as="sourcePoint"/>
                        <mxPoint x="69.30000000000003" y="15.23809523809524" as="targetPoint"/>
                    </mxGeometry>
                </mxCell>
                <mxCell id="VSOOdFKqQpEASRD3PjGL-125" value="" style="group" parent="1" vertex="1" connectable="0">
                    <mxGeometry x="470" y="210" width="70" height="16" as="geometry"/>
                </mxCell>
                <mxCell id="VSOOdFKqQpEASRD3PjGL-126" value="" style="endArrow=none;html=1;strokeWidth=2;" parent="VSOOdFKqQpEASRD3PjGL-125" edge="1">
                    <mxGeometry width="50" height="50" relative="1" as="geometry">
                        <mxPoint y="15.23809523809524" as="sourcePoint"/>
                        <mxPoint x="70" y="15.23809523809524" as="targetPoint"/>
                    </mxGeometry>
                </mxCell>
                <mxCell id="VSOOdFKqQpEASRD3PjGL-127" value="" style="endArrow=none;html=1;strokeColor=#0066CC;" parent="VSOOdFKqQpEASRD3PjGL-125" edge="1">
                    <mxGeometry width="50" height="50" relative="1" as="geometry">
                        <mxPoint y="0.4876190476190345" as="sourcePoint"/>
                        <mxPoint x="70" y="0.4876190476190345" as="targetPoint"/>
                    </mxGeometry>
                </mxCell>
                <mxCell id="VSOOdFKqQpEASRD3PjGL-128" value="" style="endArrow=none;html=1;strokeColor=#0066CC;" parent="VSOOdFKqQpEASRD3PjGL-125" edge="1">
                    <mxGeometry width="50" height="50" relative="1" as="geometry">
                        <mxPoint y="0.7619047619047592" as="sourcePoint"/>
                        <mxPoint y="16" as="targetPoint"/>
                    </mxGeometry>
                </mxCell>
                <mxCell id="VSOOdFKqQpEASRD3PjGL-129" value="" style="endArrow=none;html=1;strokeColor=#0066CC;" parent="VSOOdFKqQpEASRD3PjGL-125" edge="1">
                    <mxGeometry width="50" height="50" relative="1" as="geometry">
                        <mxPoint x="69.30000000000003" as="sourcePoint"/>
                        <mxPoint x="69.30000000000003" y="15.23809523809524" as="targetPoint"/>
                    </mxGeometry>
                </mxCell>
                <mxCell id="VSOOdFKqQpEASRD3PjGL-131" value="" style="endArrow=classic;html=1;" parent="1" edge="1">
                    <mxGeometry width="50" height="50" relative="1" as="geometry">
                        <mxPoint x="280" y="360" as="sourcePoint"/>
                        <mxPoint x="320" y="390" as="targetPoint"/>
                    </mxGeometry>
                </mxCell>
                <mxCell id="VSOOdFKqQpEASRD3PjGL-132" value="" style="endArrow=classic;html=1;entryX=0.555;entryY=0.233;entryDx=0;entryDy=0;entryPerimeter=0;" parent="1" target="VSOOdFKqQpEASRD3PjGL-86" edge="1">
                    <mxGeometry width="50" height="50" relative="1" as="geometry">
                        <mxPoint x="350" y="360" as="sourcePoint"/>
                        <mxPoint x="330" y="400" as="targetPoint"/>
                    </mxGeometry>
                </mxCell>
                <mxCell id="VSOOdFKqQpEASRD3PjGL-134" value="" style="endArrow=classic;html=1;entryX=0.75;entryY=0;entryDx=0;entryDy=0;" parent="1" edge="1">
                    <mxGeometry width="50" height="50" relative="1" as="geometry">
                        <mxPoint x="510" y="230" as="sourcePoint"/>
                        <mxPoint x="504.1600000000001" y="255" as="targetPoint"/>
                    </mxGeometry>
                </mxCell>
                <mxCell id="VSOOdFKqQpEASRD3PjGL-151" value="" style="group" parent="1" vertex="1" connectable="0">
                    <mxGeometry x="580" y="490" width="90" height="40" as="geometry"/>
                </mxCell>
                <mxCell id="VSOOdFKqQpEASRD3PjGL-146" value="" style="curved=1;endArrow=none;html=1;rounded=0;strokeWidth=2;strokeColor=#0066CC;" parent="VSOOdFKqQpEASRD3PjGL-151" edge="1">
                    <mxGeometry width="50" height="50" relative="1" as="geometry">
                        <mxPoint y="40" as="sourcePoint"/>
                        <mxPoint x="84" y="40" as="targetPoint"/>
                        <Array as="points">
                            <mxPoint y="5.7142857142857135"/>
                            <mxPoint/>
                            <mxPoint x="20" y="3.8095238095237876"/>
                            <mxPoint x="36" y="13.333333333333353"/>
                            <mxPoint x="52" y="26.666666666666643"/>
                            <mxPoint x="68" y="36.19047619047621"/>
                        </Array>
                    </mxGeometry>
                </mxCell>
                <mxCell id="VSOOdFKqQpEASRD3PjGL-147" value="" style="endArrow=none;html=1;strokeWidth=2;" parent="VSOOdFKqQpEASRD3PjGL-151" edge="1">
                    <mxGeometry width="50" height="50" relative="1" as="geometry">
                        <mxPoint y="40" as="sourcePoint"/>
                        <mxPoint x="90" y="40" as="targetPoint"/>
                    </mxGeometry>
                </mxCell>
                <mxCell id="VSOOdFKqQpEASRD3PjGL-152" value="" style="endArrow=classic;html=1;entryX=0.667;entryY=0.667;entryDx=0;entryDy=0;entryPerimeter=0;" parent="1" target="6" edge="1">
                    <mxGeometry width="50" height="50" relative="1" as="geometry">
                        <mxPoint x="605" y="530" as="sourcePoint"/>
                        <mxPoint x="590" y="592" as="targetPoint"/>
                    </mxGeometry>
                </mxCell>
                <mxCell id="VSOOdFKqQpEASRD3PjGL-154" value="~" style="text;strokeColor=none;align=center;fillColor=none;html=1;verticalAlign=middle;whiteSpace=wrap;rounded=0;" parent="1" vertex="1">
                    <mxGeometry x="250" y="356" width="60" height="30" as="geometry"/>
                </mxCell>
                <mxCell id="VSOOdFKqQpEASRD3PjGL-156" value="~" style="text;strokeColor=none;align=center;fillColor=none;html=1;verticalAlign=middle;whiteSpace=wrap;rounded=0;" parent="1" vertex="1">
                    <mxGeometry x="390" y="220" width="60" height="30" as="geometry"/>
                </mxCell>
                <mxCell id="VSOOdFKqQpEASRD3PjGL-158" value="" style="group" parent="1" vertex="1" connectable="0">
                    <mxGeometry x="350" y="260" width="90" height="40" as="geometry"/>
                </mxCell>
                <mxCell id="VSOOdFKqQpEASRD3PjGL-159" value="" style="curved=1;endArrow=none;html=1;rounded=0;strokeWidth=2;strokeColor=#0066CC;" parent="VSOOdFKqQpEASRD3PjGL-158" edge="1">
                    <mxGeometry width="50" height="50" relative="1" as="geometry">
                        <mxPoint y="40" as="sourcePoint"/>
                        <mxPoint x="84" y="40" as="targetPoint"/>
                        <Array as="points">
                            <mxPoint y="5.7142857142857135"/>
                            <mxPoint/>
                            <mxPoint x="20" y="3.8095238095237876"/>
                            <mxPoint x="36" y="13.333333333333353"/>
                            <mxPoint x="52" y="26.666666666666643"/>
                            <mxPoint x="68" y="36.19047619047621"/>
                        </Array>
                    </mxGeometry>
                </mxCell>
                <mxCell id="VSOOdFKqQpEASRD3PjGL-160" value="" style="endArrow=none;html=1;strokeWidth=2;" parent="VSOOdFKqQpEASRD3PjGL-158" edge="1">
                    <mxGeometry width="50" height="50" relative="1" as="geometry">
                        <mxPoint y="40" as="sourcePoint"/>
                        <mxPoint x="90" y="40" as="targetPoint"/>
                    </mxGeometry>
                </mxCell>
                <mxCell id="VSOOdFKqQpEASRD3PjGL-161" value="" style="endArrow=classic;html=1;" parent="1" target="VSOOdFKqQpEASRD3PjGL-66" edge="1">
                    <mxGeometry width="50" height="50" relative="1" as="geometry">
                        <mxPoint x="400" y="300" as="sourcePoint"/>
                        <mxPoint x="410" y="380" as="targetPoint"/>
                    </mxGeometry>
                </mxCell>
                <mxCell id="VSOOdFKqQpEASRD3PjGL-164" value="" style="group" parent="1" vertex="1" connectable="0">
                    <mxGeometry x="590" y="180" width="90" height="33" as="geometry"/>
                </mxCell>
                <mxCell id="VSOOdFKqQpEASRD3PjGL-165" value="" style="curved=1;endArrow=none;html=1;rounded=0;strokeWidth=2;strokeColor=#0066CC;" parent="VSOOdFKqQpEASRD3PjGL-164" edge="1">
                    <mxGeometry width="50" height="50" relative="1" as="geometry">
                        <mxPoint y="33" as="sourcePoint"/>
                        <mxPoint x="84" y="33" as="targetPoint"/>
                        <Array as="points">
                            <mxPoint y="4.7142857142857135"/>
                            <mxPoint/>
                            <mxPoint x="20" y="3.142857142857125"/>
                            <mxPoint x="36" y="11.000000000000018"/>
                            <mxPoint x="52" y="21.99999999999998"/>
                            <mxPoint x="68" y="29.857142857142875"/>
                        </Array>
                    </mxGeometry>
                </mxCell>
                <mxCell id="VSOOdFKqQpEASRD3PjGL-166" value="" style="endArrow=none;html=1;strokeWidth=2;" parent="VSOOdFKqQpEASRD3PjGL-164" edge="1">
                    <mxGeometry width="50" height="50" relative="1" as="geometry">
                        <mxPoint y="33" as="sourcePoint"/>
                        <mxPoint x="90" y="33" as="targetPoint"/>
                    </mxGeometry>
                </mxCell>
                <mxCell id="VSOOdFKqQpEASRD3PjGL-167" value="" style="endArrow=classic;html=1;entryX=0.75;entryY=0;entryDx=0;entryDy=0;" parent="VSOOdFKqQpEASRD3PjGL-164" target="VSOOdFKqQpEASRD3PjGL-67" edge="1">
                    <mxGeometry width="50" height="50" relative="1" as="geometry">
                        <mxPoint y="33" as="sourcePoint"/>
                        <mxPoint x="-20" y="41.25" as="targetPoint"/>
                    </mxGeometry>
                </mxCell>
                <mxCell id="VSOOdFKqQpEASRD3PjGL-101" value="~" style="text;strokeColor=none;align=center;fillColor=none;html=1;verticalAlign=middle;whiteSpace=wrap;rounded=0;" parent="1" vertex="1">
                    <mxGeometry x="543.08" y="210" width="60" height="30" as="geometry"/>
                </mxCell>
            </root>
        </mxGraphModel>
    </diagram>
    <diagram name="Normal Distribution" id="normal-dist">
        <mxGraphModel dx="757" dy="586" grid="1" gridSize="10" guides="1" tooltips="1" connect="1" arrows="1" fold="1" page="1" pageScale="1" pageWidth="827" pageHeight="1169" math="1" shadow="0">
            <root>
                <mxCell id="0"/>
                <mxCell id="1" parent="0"/>
                <mxCell id="x-axis" value="" style="endArrow=classic;html=1;rounded=0;strokeWidth=2;" parent="1" edge="1">
                    <mxGeometry width="50" height="50" relative="1" as="geometry">
                        <mxPoint x="100" y="400" as="sourcePoint"/>
                        <mxPoint x="700" y="400" as="targetPoint"/>
                    </mxGeometry>
                </mxCell>
                <mxCell id="y-axis" value="" style="endArrow=classic;html=1;rounded=0;strokeWidth=2;" parent="1" edge="1">
                    <mxGeometry width="50" height="50" relative="1" as="geometry">
                        <mxPoint x="400" y="450" as="sourcePoint"/>
                        <mxPoint x="400" y="150" as="targetPoint"/>
                    </mxGeometry>
                </mxCell>
                <mxCell id="normal-curve" value="" style="curved=1;endArrow=none;html=1;rounded=0;strokeWidth=3;strokeColor=#0066CC;" parent="1" edge="1">
                    <mxGeometry width="50" height="50" relative="1" as="geometry">
                        <mxPoint x="150" y="390" as="sourcePoint"/>
                        <mxPoint x="650" y="390" as="targetPoint"/>
                        <Array as="points">
                            <mxPoint x="200" y="370"/>
                            <mxPoint x="250" y="320"/>
                            <mxPoint x="300" y="250"/>
                            <mxPoint x="350" y="200"/>
                            <mxPoint x="400" y="180"/>
                            <mxPoint x="450" y="200"/>
                            <mxPoint x="500" y="250"/>
                            <mxPoint x="550" y="320"/>
                            <mxPoint x="600" y="370"/>
                        </Array>
                    </mxGeometry>
                </mxCell>
                <mxCell id="mu-line" value="" style="endArrow=none;html=1;rounded=0;strokeColor=#FF6600;strokeWidth=2;dashed=1;" parent="1" edge="1">
                    <mxGeometry width="50" height="50" relative="1" as="geometry">
                        <mxPoint x="400" y="180" as="sourcePoint"/>
                        <mxPoint x="400" y="400" as="targetPoint"/>
                    </mxGeometry>
                </mxCell>
                <mxCell id="sigma-left" value="" style="endArrow=none;html=1;rounded=0;strokeColor=#00CC66;strokeWidth=1;dashed=1;" parent="1" edge="1">
                    <mxGeometry width="50" height="50" relative="1" as="geometry">
                        <mxPoint x="300" y="250" as="sourcePoint"/>
                        <mxPoint x="300" y="400" as="targetPoint"/>
                    </mxGeometry>
                </mxCell>
                <mxCell id="sigma-right" value="" style="endArrow=none;html=1;rounded=0;strokeColor=#00CC66;strokeWidth=1;dashed=1;" parent="1" edge="1">
                    <mxGeometry width="50" height="50" relative="1" as="geometry">
                        <mxPoint x="500" y="250" as="sourcePoint"/>
                        <mxPoint x="500" y="400" as="targetPoint"/>
                    </mxGeometry>
                </mxCell>
                <mxCell id="x-label" value="X" style="text;html=1;strokeColor=none;fillColor=none;align=center;verticalAlign=middle;whiteSpace=wrap;rounded=0;fontSize=16;fontStyle=1;" parent="1" vertex="1">
                    <mxGeometry x="685" y="405" width="30" height="30" as="geometry"/>
                </mxCell>
                <mxCell id="y-label" value="f(x)" style="text;html=1;strokeColor=none;fillColor=none;align=center;verticalAlign=middle;whiteSpace=wrap;rounded=0;fontSize=16;fontStyle=1;" parent="1" vertex="1">
                    <mxGeometry x="370" y="125" width="40" height="30" as="geometry"/>
                </mxCell>
                <mxCell id="mu-label" value="μ" style="text;html=1;strokeColor=none;fillColor=none;align=center;verticalAlign=middle;whiteSpace=wrap;rounded=0;fontSize=16;fontStyle=1;color=#FF6600;" parent="1" vertex="1">
                    <mxGeometry x="385" y="410" width="30" height="20" as="geometry"/>
                </mxCell>
                <mxCell id="sigma-left-label" value="μ-σ" style="text;html=1;strokeColor=none;fillColor=none;align=center;verticalAlign=middle;whiteSpace=wrap;rounded=0;fontSize=12;color=#00CC66;" parent="1" vertex="1">
                    <mxGeometry x="280" y="410" width="40" height="20" as="geometry"/>
                </mxCell>
                <mxCell id="sigma-right-label" value="μ+σ" style="text;html=1;strokeColor=none;fillColor=none;align=center;verticalAlign=middle;whiteSpace=wrap;rounded=0;fontSize=12;color=#00CC66;" parent="1" vertex="1">
                    <mxGeometry x="480" y="410" width="40" height="20" as="geometry"/>
                </mxCell>
                <mxCell id="title" value="正規分布 (Normal Distribution)" style="text;html=1;strokeColor=none;fillColor=none;align=center;verticalAlign=middle;whiteSpace=wrap;rounded=0;fontSize=18;fontStyle=1;" parent="1" vertex="1">
                    <mxGeometry x="300" y="80" width="200" height="30" as="geometry"/>
                </mxCell>
            </root>
        </mxGraphModel>
    </diagram>
    <diagram id="p7HyFH0mwNUEYiTSq-2z" name="ページ3">
        <mxGraphModel dx="757" dy="586" grid="1" gridSize="10" guides="1" tooltips="1" connect="1" arrows="1" fold="1" page="1" pageScale="1" pageWidth="827" pageHeight="1169" math="0" shadow="0">
            <root>
                <mxCell id="0"/>
                <mxCell id="1" parent="0"/>
            </root>
        </mxGraphModel>
    </diagram>
</mxfile>